<?xml version="1.0" encoding="UTF-8" standalone="no"?>
<!DOCTYPE svg PUBLIC "-//W3C//DTD SVG 1.1//EN"
 "http://www.w3.org/Graphics/SVG/1.1/DTD/svg11.dtd">
<!-- Generated by graphviz version 2.44.0 (0)
 -->
<!-- Title: snakemake_dag Pages: 1 -->
<svg width="808pt" height="707pt"
 viewBox="0.00 0.00 808.00 707.00" xmlns="http://www.w3.org/2000/svg" xmlns:xlink="http://www.w3.org/1999/xlink">
<g id="graph0" class="graph" transform="scale(1 1) rotate(0) translate(4 703)">
<title>snakemake_dag</title>
<polygon fill="white" stroke="transparent" points="-4,4 -4,-703 804,-703 804,4 -4,4"/>
<!-- 0 -->
<g id="node1" class="node">
<title>0</title>
<path fill="none" stroke="#56d8d0" stroke-width="2" d="M318,-36C318,-36 288,-36 288,-36 282,-36 276,-30 276,-24 276,-24 276,-12 276,-12 276,-6 282,0 288,0 288,0 318,0 318,0 324,0 330,-6 330,-12 330,-12 330,-24 330,-24 330,-30 324,-36 318,-36"/>
<text text-anchor="middle" x="303" y="-15.5" font-family="sans" font-size="10.00">all</text>
</g>
<!-- 1 -->
<g id="node2" class="node">
<title>1</title>
<path fill="none" stroke="#56d863" stroke-width="2" d="M105.5,-110.5C105.5,-110.5 44.5,-110.5 44.5,-110.5 38.5,-110.5 32.5,-104.5 32.5,-98.5 32.5,-98.5 32.5,-86.5 32.5,-86.5 32.5,-80.5 38.5,-74.5 44.5,-74.5 44.5,-74.5 105.5,-74.5 105.5,-74.5 111.5,-74.5 117.5,-80.5 117.5,-86.5 117.5,-86.5 117.5,-98.5 117.5,-98.5 117.5,-104.5 111.5,-110.5 105.5,-110.5"/>
<text text-anchor="middle" x="75" y="-90" font-family="sans" font-size="10.00">genomescope</text>
</g>
<!-- 1&#45;&gt;0 -->
<g id="edge1" class="edge">
<title>1&#45;&gt;0</title>
<path fill="none" stroke="grey" stroke-width="2" d="M117.77,-75.21C120.88,-74.1 123.99,-73.02 127,-72 174.61,-55.93 230.23,-39.57 266,-29.37"/>
<polygon fill="grey" stroke="grey" stroke-width="2" points="267.33,-32.63 275.99,-26.53 265.41,-25.9 267.33,-32.63"/>
</g>
<!-- 2 -->
<g id="node3" class="node">
<title>2</title>
<path fill="none" stroke="#d88d56" stroke-width="2" d="M151,-187.5C151,-187.5 95,-187.5 95,-187.5 89,-187.5 83,-181.5 83,-175.5 83,-175.5 83,-163.5 83,-163.5 83,-157.5 89,-151.5 95,-151.5 95,-151.5 151,-151.5 151,-151.5 157,-151.5 163,-157.5 163,-163.5 163,-163.5 163,-175.5 163,-175.5 163,-181.5 157,-187.5 151,-187.5"/>
<text text-anchor="middle" x="123" y="-167" font-family="sans" font-size="10.00">count_kmers</text>
</g>
<!-- 2&#45;&gt;1 -->
<g id="edge9" class="edge">
<title>2&#45;&gt;1</title>
<path fill="none" stroke="grey" stroke-width="2" d="M112.11,-151.48C106.01,-141.96 98.29,-129.9 91.48,-119.24"/>
<polygon fill="grey" stroke="grey" stroke-width="2" points="94.35,-117.25 86.01,-110.71 88.46,-121.02 94.35,-117.25"/>
</g>
<!-- 3 -->
<g id="node4" class="node">
<title>3</title>
<path fill="none" stroke="#61d856" stroke-width="2" d="M198,-110.5C198,-110.5 148,-110.5 148,-110.5 142,-110.5 136,-104.5 136,-98.5 136,-98.5 136,-86.5 136,-86.5 136,-80.5 142,-74.5 148,-74.5 148,-74.5 198,-74.5 198,-74.5 204,-74.5 210,-80.5 210,-86.5 210,-86.5 210,-98.5 210,-98.5 210,-104.5 204,-110.5 198,-110.5"/>
<text text-anchor="middle" x="173" y="-90" font-family="sans" font-size="10.00">smudgeplot</text>
</g>
<!-- 2&#45;&gt;3 -->
<g id="edge10" class="edge">
<title>2&#45;&gt;3</title>
<path fill="none" stroke="grey" stroke-width="2" d="M134.35,-151.48C140.69,-141.96 148.74,-129.9 155.84,-119.24"/>
<polygon fill="grey" stroke="grey" stroke-width="2" points="158.89,-120.97 161.53,-110.71 153.07,-117.09 158.89,-120.97"/>
</g>
<!-- 3&#45;&gt;0 -->
<g id="edge2" class="edge">
<title>3&#45;&gt;0</title>
<path fill="none" stroke="grey" stroke-width="2" d="M203.81,-74.32C222.82,-63.72 247.29,-50.07 267.17,-38.98"/>
<polygon fill="grey" stroke="grey" stroke-width="2" points="268.91,-42.02 275.94,-34.09 265.5,-35.9 268.91,-42.02"/>
</g>
<!-- 4 -->
<g id="node5" class="node">
<title>4</title>
<path fill="none" stroke="#80d856" stroke-width="2" d="M176,-411C176,-411 12,-411 12,-411 6,-411 0,-405 0,-399 0,-399 0,-382 0,-382 0,-376 6,-370 12,-370 12,-370 176,-370 176,-370 182,-370 188,-376 188,-382 188,-382 188,-399 188,-399 188,-405 182,-411 176,-411"/>
<text text-anchor="middle" x="94" y="-399" font-family="sans" font-size="10.00">busco</text>
<text text-anchor="middle" x="94" y="-388" font-family="sans" font-size="10.00">assembly: assembly.hic.hap1.p_ctg</text>
<text text-anchor="middle" x="94" y="-377" font-family="sans" font-size="10.00">dir: assembly</text>
</g>
<!-- 4&#45;&gt;0 -->
<g id="edge3" class="edge">
<title>4&#45;&gt;0</title>
<path fill="none" stroke="grey" stroke-width="2" d="M135.65,-369.86C178.18,-346.57 238,-303.44 238,-245 238,-245 238,-245 238,-168.5 238,-122.02 264.75,-73.65 283.93,-44.94"/>
<polygon fill="grey" stroke="grey" stroke-width="2" points="287.06,-46.56 289.85,-36.34 281.3,-42.6 287.06,-46.56"/>
</g>
<!-- 5 -->
<g id="node6" class="node">
<title>5</title>
<path fill="none" stroke="#ced856" stroke-width="2" d="M538.5,-555C538.5,-555 457.5,-555 457.5,-555 451.5,-555 445.5,-549 445.5,-543 445.5,-543 445.5,-531 445.5,-531 445.5,-525 451.5,-519 457.5,-519 457.5,-519 538.5,-519 538.5,-519 544.5,-519 550.5,-525 550.5,-531 550.5,-531 550.5,-543 550.5,-543 550.5,-549 544.5,-555 538.5,-555"/>
<text text-anchor="middle" x="498" y="-534.5" font-family="sans" font-size="10.00">assembly_hifiams</text>
</g>
<!-- 5&#45;&gt;4 -->
<g id="edge11" class="edge">
<title>5&#45;&gt;4</title>
<path fill="none" stroke="grey" stroke-width="2" d="M450.47,-519C378.01,-493.08 239.78,-443.64 158.38,-414.53"/>
<polygon fill="grey" stroke="grey" stroke-width="2" points="159.34,-411.15 148.75,-411.08 156.99,-417.75 159.34,-411.15"/>
</g>
<!-- 8 -->
<g id="node9" class="node">
<title>8</title>
<path fill="none" stroke="#80d856" stroke-width="2" d="M382,-411C382,-411 218,-411 218,-411 212,-411 206,-405 206,-399 206,-399 206,-382 206,-382 206,-376 212,-370 218,-370 218,-370 382,-370 382,-370 388,-370 394,-376 394,-382 394,-382 394,-399 394,-399 394,-405 388,-411 382,-411"/>
<text text-anchor="middle" x="300" y="-399" font-family="sans" font-size="10.00">busco</text>
<text text-anchor="middle" x="300" y="-388" font-family="sans" font-size="10.00">assembly: assembly.hic.hap2.p_ctg</text>
<text text-anchor="middle" x="300" y="-377" font-family="sans" font-size="10.00">dir: assembly</text>
</g>
<!-- 5&#45;&gt;8 -->
<g id="edge14" class="edge">
<title>5&#45;&gt;8</title>
<path fill="none" stroke="grey" stroke-width="2" d="M465.94,-518.88C448.37,-509.07 426.48,-496.12 408,-483 379.75,-462.94 349.86,-437.22 328.7,-418.16"/>
<polygon fill="grey" stroke="grey" stroke-width="2" points="330.8,-415.34 321.05,-411.21 326.1,-420.52 330.8,-415.34"/>
</g>
<!-- 10 -->
<g id="node11" class="node">
<title>10</title>
<path fill="none" stroke="#d8c356" stroke-width="2" d="M468,-262C468,-262 414,-262 414,-262 408,-262 402,-256 402,-250 402,-250 402,-238 402,-238 402,-232 408,-226 414,-226 414,-226 468,-226 468,-226 474,-226 480,-232 480,-238 480,-238 480,-250 480,-250 480,-256 474,-262 468,-262"/>
<text text-anchor="middle" x="441" y="-241.5" font-family="sans" font-size="10.00">scaffold_hap</text>
</g>
<!-- 5&#45;&gt;10 -->
<g id="edge16" class="edge">
<title>5&#45;&gt;10</title>
<path fill="none" stroke="grey" stroke-width="2" d="M488.19,-518.81C482.76,-508.66 476.26,-495.41 472,-483 450.04,-419.02 447.93,-401.28 441,-334 438.88,-313.38 438.98,-289.93 439.56,-272.28"/>
<polygon fill="grey" stroke="grey" stroke-width="2" points="443.06,-272.25 439.96,-262.12 436.07,-271.97 443.06,-272.25"/>
</g>
<!-- 11 -->
<g id="node12" class="node">
<title>11</title>
<path fill="none" stroke="#d85656" stroke-width="2" d="M512,-334C512,-334 462,-334 462,-334 456,-334 450,-328 450,-322 450,-322 450,-310 450,-310 450,-304 456,-298 462,-298 462,-298 512,-298 512,-298 518,-298 524,-304 524,-310 524,-310 524,-322 524,-322 524,-328 518,-334 512,-334"/>
<text text-anchor="middle" x="487" y="-319" font-family="sans" font-size="10.00">prepare_hic</text>
<text text-anchor="middle" x="487" y="-308" font-family="sans" font-size="10.00">hap: hap1</text>
</g>
<!-- 5&#45;&gt;11 -->
<g id="edge18" class="edge">
<title>5&#45;&gt;11</title>
<path fill="none" stroke="grey" stroke-width="2" d="M490.11,-518.75C485.89,-508.58 481.14,-495.33 479,-483 470.61,-434.73 476.87,-377.46 482.04,-344.37"/>
<polygon fill="grey" stroke="grey" stroke-width="2" points="485.55,-344.56 483.72,-334.12 478.65,-343.42 485.55,-344.56"/>
</g>
<!-- 13 -->
<g id="node14" class="node">
<title>13</title>
<path fill="none" stroke="#b6d856" stroke-width="2" d="M574,-483C574,-483 500,-483 500,-483 494,-483 488,-477 488,-471 488,-471 488,-459 488,-459 488,-453 494,-447 500,-447 500,-447 574,-447 574,-447 580,-447 586,-453 586,-459 586,-459 586,-471 586,-471 586,-477 580,-483 574,-483"/>
<text text-anchor="middle" x="537" y="-468" font-family="sans" font-size="10.00">create_meryl_db</text>
<text text-anchor="middle" x="537" y="-457" font-family="sans" font-size="10.00">hap: hap1</text>
</g>
<!-- 5&#45;&gt;13 -->
<g id="edge22" class="edge">
<title>5&#45;&gt;13</title>
<path fill="none" stroke="grey" stroke-width="2" d="M507.64,-518.7C512.13,-510.64 517.56,-500.89 522.52,-491.98"/>
<polygon fill="grey" stroke="grey" stroke-width="2" points="525.66,-493.54 527.47,-483.1 519.55,-490.14 525.66,-493.54"/>
</g>
<!-- 14 -->
<g id="node15" class="node">
<title>14</title>
<path fill="none" stroke="#b6d856" stroke-width="2" d="M690,-483C690,-483 616,-483 616,-483 610,-483 604,-477 604,-471 604,-471 604,-459 604,-459 604,-453 610,-447 616,-447 616,-447 690,-447 690,-447 696,-447 702,-453 702,-459 702,-459 702,-471 702,-471 702,-477 696,-483 690,-483"/>
<text text-anchor="middle" x="653" y="-468" font-family="sans" font-size="10.00">create_meryl_db</text>
<text text-anchor="middle" x="653" y="-457" font-family="sans" font-size="10.00">hap: hap2</text>
</g>
<!-- 5&#45;&gt;14 -->
<g id="edge23" class="edge">
<title>5&#45;&gt;14</title>
<path fill="none" stroke="grey" stroke-width="2" d="M535.92,-518.88C557.01,-509.35 583.46,-497.41 605.87,-487.28"/>
<polygon fill="grey" stroke="grey" stroke-width="2" points="607.53,-490.37 615.21,-483.07 604.65,-483.99 607.53,-490.37"/>
</g>
<!-- 16 -->
<g id="node17" class="node">
<title>16</title>
<path fill="none" stroke="#d8c356" stroke-width="2" d="M736,-262C736,-262 682,-262 682,-262 676,-262 670,-256 670,-250 670,-250 670,-238 670,-238 670,-232 676,-226 682,-226 682,-226 736,-226 736,-226 742,-226 748,-232 748,-238 748,-238 748,-250 748,-250 748,-256 742,-262 736,-262"/>
<text text-anchor="middle" x="709" y="-241.5" font-family="sans" font-size="10.00">scaffold_hap</text>
</g>
<!-- 5&#45;&gt;16 -->
<g id="edge25" class="edge">
<title>5&#45;&gt;16</title>
<path fill="none" stroke="grey" stroke-width="2" d="M550.65,-531.18C612.35,-524.37 709.21,-509.69 733,-483 787.91,-421.39 775.22,-376.25 749,-298 745.65,-288 739.58,-278.38 733.17,-270.14"/>
<polygon fill="grey" stroke="grey" stroke-width="2" points="735.82,-267.85 726.73,-262.4 730.44,-272.33 735.82,-267.85"/>
</g>
<!-- 17 -->
<g id="node18" class="node">
<title>17</title>
<path fill="none" stroke="#d85656" stroke-width="2" d="M728,-334C728,-334 678,-334 678,-334 672,-334 666,-328 666,-322 666,-322 666,-310 666,-310 666,-304 672,-298 678,-298 678,-298 728,-298 728,-298 734,-298 740,-304 740,-310 740,-310 740,-322 740,-322 740,-328 734,-334 728,-334"/>
<text text-anchor="middle" x="703" y="-319" font-family="sans" font-size="10.00">prepare_hic</text>
<text text-anchor="middle" x="703" y="-308" font-family="sans" font-size="10.00">hap: hap2</text>
</g>
<!-- 5&#45;&gt;17 -->
<g id="edge27" class="edge">
<title>5&#45;&gt;17</title>
<path fill="none" stroke="grey" stroke-width="2" d="M550.74,-530.26C607.24,-522.9 691.46,-507.99 711,-483 742.21,-443.07 726.82,-379.78 714.09,-343.99"/>
<polygon fill="grey" stroke="grey" stroke-width="2" points="717.23,-342.38 710.45,-334.24 710.67,-344.83 717.23,-342.38"/>
</g>
<!-- 6 -->
<g id="node7" class="node">
<title>6</title>
<path fill="none" stroke="#97d856" stroke-width="2" d="M560.5,-627C560.5,-627 435.5,-627 435.5,-627 429.5,-627 423.5,-621 423.5,-615 423.5,-615 423.5,-603 423.5,-603 423.5,-597 429.5,-591 435.5,-591 435.5,-591 560.5,-591 560.5,-591 566.5,-591 572.5,-597 572.5,-603 572.5,-603 572.5,-615 572.5,-615 572.5,-621 566.5,-627 560.5,-627"/>
<text text-anchor="middle" x="498" y="-606.5" font-family="sans" font-size="10.00">concatenate_filtered_reads</text>
</g>
<!-- 6&#45;&gt;5 -->
<g id="edge12" class="edge">
<title>6&#45;&gt;5</title>
<path fill="none" stroke="grey" stroke-width="2" d="M498,-590.7C498,-582.98 498,-573.71 498,-565.11"/>
<polygon fill="grey" stroke="grey" stroke-width="2" points="501.5,-565.1 498,-555.1 494.5,-565.1 501.5,-565.1"/>
</g>
<!-- 7 -->
<g id="node8" class="node">
<title>7</title>
<path fill="none" stroke="#d87556" stroke-width="2" d="M527,-699C527,-699 469,-699 469,-699 463,-699 457,-693 457,-687 457,-687 457,-675 457,-675 457,-669 463,-663 469,-663 469,-663 527,-663 527,-663 533,-663 539,-669 539,-675 539,-675 539,-687 539,-687 539,-693 533,-699 527,-699"/>
<text text-anchor="middle" x="498" y="-678.5" font-family="sans" font-size="10.00">hifiadapterfilt</text>
</g>
<!-- 7&#45;&gt;6 -->
<g id="edge13" class="edge">
<title>7&#45;&gt;6</title>
<path fill="none" stroke="grey" stroke-width="2" d="M498,-662.7C498,-654.98 498,-645.71 498,-637.11"/>
<polygon fill="grey" stroke="grey" stroke-width="2" points="501.5,-637.1 498,-627.1 494.5,-637.1 501.5,-637.1"/>
</g>
<!-- 8&#45;&gt;0 -->
<g id="edge4" class="edge">
<title>8&#45;&gt;0</title>
<path fill="none" stroke="grey" stroke-width="2" d="M294.55,-369.57C287.47,-341.86 276,-290.01 276,-245 276,-245 276,-245 276,-168.5 276,-125.09 287.16,-75.7 295.13,-45.96"/>
<polygon fill="grey" stroke="grey" stroke-width="2" points="298.51,-46.88 297.79,-36.31 291.76,-45.02 298.51,-46.88"/>
</g>
<!-- 9 -->
<g id="node10" class="node">
<title>9</title>
<path fill="none" stroke="#80d856" stroke-width="2" d="M532,-113C532,-113 388,-113 388,-113 382,-113 376,-107 376,-101 376,-101 376,-84 376,-84 376,-78 382,-72 388,-72 388,-72 532,-72 532,-72 538,-72 544,-78 544,-84 544,-84 544,-101 544,-101 544,-107 538,-113 532,-113"/>
<text text-anchor="middle" x="460" y="-101" font-family="sans" font-size="10.00">busco</text>
<text text-anchor="middle" x="460" y="-90" font-family="sans" font-size="10.00">assembly: hap1_scaffolds_final</text>
<text text-anchor="middle" x="460" y="-79" font-family="sans" font-size="10.00">dir: scaffolding</text>
</g>
<!-- 9&#45;&gt;0 -->
<g id="edge5" class="edge">
<title>9&#45;&gt;0</title>
<path fill="none" stroke="grey" stroke-width="2" d="M417.51,-71.88C393.09,-60.6 362.73,-46.58 339.41,-35.81"/>
<polygon fill="grey" stroke="grey" stroke-width="2" points="340.75,-32.58 330.2,-31.56 337.81,-38.93 340.75,-32.58"/>
</g>
<!-- 10&#45;&gt;9 -->
<g id="edge15" class="edge">
<title>10&#45;&gt;9</title>
<path fill="none" stroke="grey" stroke-width="2" d="M443.18,-225.85C446.35,-200.88 452.29,-154.14 456.2,-123.42"/>
<polygon fill="grey" stroke="grey" stroke-width="2" points="459.7,-123.65 457.49,-113.28 452.75,-122.76 459.7,-123.65"/>
</g>
<!-- 19 -->
<g id="node20" class="node">
<title>19</title>
<path fill="none" stroke="#56d882" stroke-width="2" d="M384,-187.5C384,-187.5 334,-187.5 334,-187.5 328,-187.5 322,-181.5 322,-175.5 322,-175.5 322,-163.5 322,-163.5 322,-157.5 328,-151.5 334,-151.5 334,-151.5 384,-151.5 384,-151.5 390,-151.5 396,-157.5 396,-163.5 396,-163.5 396,-175.5 396,-175.5 396,-181.5 390,-187.5 384,-187.5"/>
<text text-anchor="middle" x="359" y="-167" font-family="sans" font-size="10.00">fcs_adaptor</text>
</g>
<!-- 10&#45;&gt;19 -->
<g id="edge30" class="edge">
<title>10&#45;&gt;19</title>
<path fill="none" stroke="grey" stroke-width="2" d="M421.57,-225.82C410.95,-216.43 397.63,-204.65 386.01,-194.38"/>
<polygon fill="grey" stroke="grey" stroke-width="2" points="388.1,-191.56 378.29,-187.56 383.47,-196.8 388.1,-191.56"/>
</g>
<!-- 11&#45;&gt;10 -->
<g id="edge17" class="edge">
<title>11&#45;&gt;10</title>
<path fill="none" stroke="grey" stroke-width="2" d="M475.63,-297.7C470.28,-289.56 463.8,-279.69 457.89,-270.7"/>
<polygon fill="grey" stroke="grey" stroke-width="2" points="460.66,-268.54 452.24,-262.1 454.81,-272.38 460.66,-268.54"/>
</g>
<!-- 12 -->
<g id="node13" class="node">
<title>12</title>
<path fill="none" stroke="#56a9d8" stroke-width="2" d="M619.5,-408.5C619.5,-408.5 570.5,-408.5 570.5,-408.5 564.5,-408.5 558.5,-402.5 558.5,-396.5 558.5,-396.5 558.5,-384.5 558.5,-384.5 558.5,-378.5 564.5,-372.5 570.5,-372.5 570.5,-372.5 619.5,-372.5 619.5,-372.5 625.5,-372.5 631.5,-378.5 631.5,-384.5 631.5,-384.5 631.5,-396.5 631.5,-396.5 631.5,-402.5 625.5,-408.5 619.5,-408.5"/>
<text text-anchor="middle" x="595" y="-388" font-family="sans" font-size="10.00">meryl_filter</text>
</g>
<!-- 12&#45;&gt;11 -->
<g id="edge19" class="edge">
<title>12&#45;&gt;11</title>
<path fill="none" stroke="grey" stroke-width="2" d="M569.41,-372.32C554.88,-362.57 536.52,-350.24 520.82,-339.7"/>
<polygon fill="grey" stroke="grey" stroke-width="2" points="522.66,-336.73 512.41,-334.06 518.76,-342.54 522.66,-336.73"/>
</g>
<!-- 12&#45;&gt;17 -->
<g id="edge28" class="edge">
<title>12&#45;&gt;17</title>
<path fill="none" stroke="grey" stroke-width="2" d="M620.59,-372.32C635.12,-362.57 653.48,-350.24 669.18,-339.7"/>
<polygon fill="grey" stroke="grey" stroke-width="2" points="671.24,-342.54 677.59,-334.06 667.34,-336.73 671.24,-342.54"/>
</g>
<!-- 13&#45;&gt;12 -->
<g id="edge20" class="edge">
<title>13&#45;&gt;12</title>
<path fill="none" stroke="grey" stroke-width="2" d="M550.75,-446.82C557.97,-437.79 566.96,-426.55 574.94,-416.57"/>
<polygon fill="grey" stroke="grey" stroke-width="2" points="577.84,-418.55 581.35,-408.56 572.37,-414.18 577.84,-418.55"/>
</g>
<!-- 14&#45;&gt;12 -->
<g id="edge21" class="edge">
<title>14&#45;&gt;12</title>
<path fill="none" stroke="grey" stroke-width="2" d="M639.25,-446.82C632.03,-437.79 623.04,-426.55 615.06,-416.57"/>
<polygon fill="grey" stroke="grey" stroke-width="2" points="617.63,-414.18 608.65,-408.56 612.16,-418.55 617.63,-414.18"/>
</g>
<!-- 15 -->
<g id="node16" class="node">
<title>15</title>
<path fill="none" stroke="#80d856" stroke-width="2" d="M788,-190C788,-190 644,-190 644,-190 638,-190 632,-184 632,-178 632,-178 632,-161 632,-161 632,-155 638,-149 644,-149 644,-149 788,-149 788,-149 794,-149 800,-155 800,-161 800,-161 800,-178 800,-178 800,-184 794,-190 788,-190"/>
<text text-anchor="middle" x="716" y="-178" font-family="sans" font-size="10.00">busco</text>
<text text-anchor="middle" x="716" y="-167" font-family="sans" font-size="10.00">assembly: hap2_scaffolds_final</text>
<text text-anchor="middle" x="716" y="-156" font-family="sans" font-size="10.00">dir: scaffolding</text>
</g>
<!-- 15&#45;&gt;0 -->
<g id="edge6" class="edge">
<title>15&#45;&gt;0</title>
<path fill="none" stroke="grey" stroke-width="2" d="M703.52,-148.97C688.01,-126.48 659.36,-90.28 625,-72 576.14,-46 414.28,-28.82 340.38,-22.13"/>
<polygon fill="grey" stroke="grey" stroke-width="2" points="340.41,-18.62 330.14,-21.22 339.79,-25.6 340.41,-18.62"/>
</g>
<!-- 16&#45;&gt;15 -->
<g id="edge24" class="edge">
<title>16&#45;&gt;15</title>
<path fill="none" stroke="grey" stroke-width="2" d="M710.66,-225.82C711.39,-218.2 712.28,-209 713.12,-200.32"/>
<polygon fill="grey" stroke="grey" stroke-width="2" points="716.63,-200.41 714.11,-190.12 709.66,-199.74 716.63,-200.41"/>
</g>
<!-- 21 -->
<g id="node22" class="node">
<title>21</title>
<path fill="none" stroke="#56d882" stroke-width="2" d="M602,-187.5C602,-187.5 552,-187.5 552,-187.5 546,-187.5 540,-181.5 540,-175.5 540,-175.5 540,-163.5 540,-163.5 540,-157.5 546,-151.5 552,-151.5 552,-151.5 602,-151.5 602,-151.5 608,-151.5 614,-157.5 614,-163.5 614,-163.5 614,-175.5 614,-175.5 614,-181.5 608,-187.5 602,-187.5"/>
<text text-anchor="middle" x="577" y="-167" font-family="sans" font-size="10.00">fcs_adaptor</text>
</g>
<!-- 16&#45;&gt;21 -->
<g id="edge32" class="edge">
<title>16&#45;&gt;21</title>
<path fill="none" stroke="grey" stroke-width="2" d="M677.72,-225.82C659.55,-215.84 636.48,-203.17 617.01,-192.47"/>
<polygon fill="grey" stroke="grey" stroke-width="2" points="618.51,-189.3 608.06,-187.56 615.14,-195.44 618.51,-189.3"/>
</g>
<!-- 17&#45;&gt;16 -->
<g id="edge26" class="edge">
<title>17&#45;&gt;16</title>
<path fill="none" stroke="grey" stroke-width="2" d="M704.48,-297.7C705.14,-289.98 705.94,-280.71 706.68,-272.11"/>
<polygon fill="grey" stroke="grey" stroke-width="2" points="710.17,-272.37 707.53,-262.1 703.19,-271.77 710.17,-272.37"/>
</g>
<!-- 18 -->
<g id="node19" class="node">
<title>18</title>
<path fill="none" stroke="#568ad8" stroke-width="2" d="M346,-110.5C346,-110.5 316,-110.5 316,-110.5 310,-110.5 304,-104.5 304,-98.5 304,-98.5 304,-86.5 304,-86.5 304,-80.5 310,-74.5 316,-74.5 316,-74.5 346,-74.5 346,-74.5 352,-74.5 358,-80.5 358,-86.5 358,-86.5 358,-98.5 358,-98.5 358,-104.5 352,-110.5 346,-110.5"/>
<text text-anchor="middle" x="331" y="-90" font-family="sans" font-size="10.00">fcs_gx</text>
</g>
<!-- 18&#45;&gt;0 -->
<g id="edge7" class="edge">
<title>18&#45;&gt;0</title>
<path fill="none" stroke="grey" stroke-width="2" d="M324.36,-74.32C321.05,-65.74 316.97,-55.17 313.26,-45.58"/>
<polygon fill="grey" stroke="grey" stroke-width="2" points="316.46,-44.13 309.59,-36.06 309.93,-46.65 316.46,-44.13"/>
</g>
<!-- 19&#45;&gt;18 -->
<g id="edge29" class="edge">
<title>19&#45;&gt;18</title>
<path fill="none" stroke="grey" stroke-width="2" d="M352.65,-151.48C349.2,-142.25 344.86,-130.62 340.97,-120.21"/>
<polygon fill="grey" stroke="grey" stroke-width="2" points="344.2,-118.86 337.43,-110.71 337.64,-121.3 344.2,-118.86"/>
</g>
<!-- 20 -->
<g id="node21" class="node">
<title>20</title>
<path fill="none" stroke="#568ad8" stroke-width="2" d="M604,-110.5C604,-110.5 574,-110.5 574,-110.5 568,-110.5 562,-104.5 562,-98.5 562,-98.5 562,-86.5 562,-86.5 562,-80.5 568,-74.5 574,-74.5 574,-74.5 604,-74.5 604,-74.5 610,-74.5 616,-80.5 616,-86.5 616,-86.5 616,-98.5 616,-98.5 616,-104.5 610,-110.5 604,-110.5"/>
<text text-anchor="middle" x="589" y="-90" font-family="sans" font-size="10.00">fcs_gx</text>
</g>
<!-- 20&#45;&gt;0 -->
<g id="edge8" class="edge">
<title>20&#45;&gt;0</title>
<path fill="none" stroke="grey" stroke-width="2" d="M561.86,-75.75C558.92,-74.37 555.94,-73.08 553,-72 480.12,-45.17 390.02,-30.25 340.32,-23.5"/>
<polygon fill="grey" stroke="grey" stroke-width="2" points="340.72,-20.02 330.35,-22.18 339.81,-26.96 340.72,-20.02"/>
</g>
<!-- 21&#45;&gt;20 -->
<g id="edge31" class="edge">
<title>21&#45;&gt;20</title>
<path fill="none" stroke="grey" stroke-width="2" d="M579.72,-151.48C581.17,-142.44 582.98,-131.1 584.62,-120.85"/>
<polygon fill="grey" stroke="grey" stroke-width="2" points="588.12,-121.14 586.25,-110.71 581.21,-120.03 588.12,-121.14"/>
</g>
</g>
</svg>
